<svg width="500" height="500" viewBox="0 0 500 500" fill="none" xmlns="http://www.w3.org/2000/svg">
<path d="M352.267 268.577C337.984 443.083 119.81 384.806 149.833 248.101C149.597 248.066 174.51 285.204 180.785 273.096C168.458 185.639 247.332 172.971 257.827 123C268.849 147.081 268.033 283.057 317.081 194.915C333.632 241.572 334.307 242.707 326.46 280.465C328.612 288.92 341.701 272.848 352.267 268.577Z" fill="#00CE89"/>
<path d="M311.182 308.913C302.702 412.525 173.162 377.924 190.988 296.756C190.848 296.735 205.64 318.785 209.365 311.596C202.046 259.669 248.877 252.148 255.109 222.478C261.653 236.776 261.168 317.511 290.29 265.177C300.118 292.879 300.518 293.553 295.859 315.972C297.137 320.992 304.909 311.449 311.182 308.913Z" fill="white"/>
<path d="M96.004 249.92L46.02 299.904L96.004 349.888" stroke="#00CE89" stroke-width="32" stroke-linecap="round" stroke-linejoin="round"/>
<path d="M403 349.968L452.984 299.984L403 250" stroke="#00CE89" stroke-width="32" stroke-linecap="round" stroke-linejoin="round"/>
</svg>
